<mxfile host="app.diagrams.net" modified="2022-11-04T12:17:36.305Z" agent="5.0 (Windows NT 10.0; Win64; x64) AppleWebKit/537.36 (KHTML, like Gecko) Chrome/105.0.0.0 Safari/537.36" etag="TiLungINLMLixhFIa29C" version="20.5.1" type="github">
  <diagram id="xN-pvMO6953U-A7ViL1o" name="第 1 页">
    <mxGraphModel dx="2062" dy="1066" grid="1" gridSize="10" guides="1" tooltips="1" connect="1" arrows="1" fold="1" page="1" pageScale="1" pageWidth="827" pageHeight="1169" math="0" shadow="0">
      <root>
        <mxCell id="0" />
        <mxCell id="1" parent="0" />
        <mxCell id="muJ0X0VW4Vbe5lSaKsZO-1" value="目标MAC&lt;br&gt;(6 bytes)" style="rounded=0;whiteSpace=wrap;html=1;" vertex="1" parent="1">
          <mxGeometry x="160" y="200" width="80" height="40" as="geometry" />
        </mxCell>
        <mxCell id="muJ0X0VW4Vbe5lSaKsZO-2" value="源MAC&lt;br&gt;(6 bytes)" style="rounded=0;whiteSpace=wrap;html=1;" vertex="1" parent="1">
          <mxGeometry x="240" y="200" width="80" height="40" as="geometry" />
        </mxCell>
        <mxCell id="muJ0X0VW4Vbe5lSaKsZO-3" value="协议类型&lt;br&gt;(2 bytes)" style="rounded=0;whiteSpace=wrap;html=1;" vertex="1" parent="1">
          <mxGeometry x="320" y="200" width="80" height="40" as="geometry" />
        </mxCell>
        <mxCell id="muJ0X0VW4Vbe5lSaKsZO-4" value="" style="endArrow=classic;html=1;rounded=0;exitX=0.5;exitY=1;exitDx=0;exitDy=0;edgeStyle=orthogonalEdgeStyle;" edge="1" parent="1" source="muJ0X0VW4Vbe5lSaKsZO-3">
          <mxGeometry width="50" height="50" relative="1" as="geometry">
            <mxPoint x="390" y="560" as="sourcePoint" />
            <mxPoint x="440" y="280" as="targetPoint" />
            <Array as="points">
              <mxPoint x="360" y="280" />
            </Array>
          </mxGeometry>
        </mxCell>
        <mxCell id="muJ0X0VW4Vbe5lSaKsZO-5" value="数据&lt;br&gt;(46-1500 bytes)" style="rounded=0;whiteSpace=wrap;html=1;" vertex="1" parent="1">
          <mxGeometry x="400" y="200" width="240" height="40" as="geometry" />
        </mxCell>
        <mxCell id="muJ0X0VW4Vbe5lSaKsZO-6" value="CRC&lt;br&gt;(4 bytes)" style="rounded=0;whiteSpace=wrap;html=1;" vertex="1" parent="1">
          <mxGeometry x="640" y="200" width="80" height="40" as="geometry" />
        </mxCell>
        <mxCell id="muJ0X0VW4Vbe5lSaKsZO-11" value="" style="shape=curlyBracket;whiteSpace=wrap;html=1;rounded=1;size=0.5;" vertex="1" parent="1">
          <mxGeometry x="440" y="260" width="20" height="40" as="geometry" />
        </mxCell>
        <mxCell id="muJ0X0VW4Vbe5lSaKsZO-12" value="类型0800：IP数据报" style="text;html=1;strokeColor=none;fillColor=none;align=center;verticalAlign=middle;whiteSpace=wrap;rounded=0;" vertex="1" parent="1">
          <mxGeometry x="460" y="250" width="120" height="20" as="geometry" />
        </mxCell>
        <mxCell id="muJ0X0VW4Vbe5lSaKsZO-13" value="类型0806：ARP请求，响应" style="text;html=1;strokeColor=none;fillColor=none;align=center;verticalAlign=middle;whiteSpace=wrap;rounded=0;" vertex="1" parent="1">
          <mxGeometry x="460" y="290" width="150" height="20" as="geometry" />
        </mxCell>
      </root>
    </mxGraphModel>
  </diagram>
</mxfile>
